<svg width="96" height="96" xmlns="http://www.w3.org/2000/svg" xmlns:xlink="http://www.w3.org/1999/xlink" xml:space="preserve" overflow="hidden"><g transform="translate(-592 -312)"><path d="M645.7 360C645.7 363.314 643.014 366 639.7 366 636.386 366 633.7 363.314 633.7 360 633.7 356.686 636.386 354 639.7 354 643.014 354 645.7 356.686 645.7 360Z"/><path d="M674.9 340C673.2 337.1 669.4 335.7 664.2 335.7 660.9 335.7 657.1 336.3 652.9 337.4 650 326.9 645.2 320 639.7 320 634.3 320 629.4 326.8 626.6 337.2 622.6 336.2 619 335.6 615.8 335.6 610.6 335.6 606.8 337 605.1 339.9 602.3 344.7 606 352.4 613.7 360.2 606.3 367.8 602.9 375.2 605.6 379.9 607.3 382.8 611.1 384.2 616.3 384.2 619.3 384.2 622.8 383.7 626.6 382.8 629.5 393.2 634.3 400 639.7 400 645.1 400 650 393.2 652.8 382.8 656.8 383.8 660.4 384.4 663.6 384.4 668.8 384.4 672.6 383 674.3 380.1 677 375.4 673.6 368 666.2 360.4 674.1 352.5 677.7 344.8 674.9 340ZM664.2 339.7C667.9 339.7 670.6 340.6 671.4 342 672.9 344.6 670.2 350.7 663.4 357.5 661 355.3 658.3 353.1 655.3 351 655 347.6 654.5 344.3 653.8 341.2 657.6 340.2 661.2 339.7 664.2 339.7ZM646.3 370.4C644.2 371.6 642.1 372.7 640 373.7 637.9 372.7 635.8 371.6 633.7 370.4 631.7 369.2 629.7 368 627.9 366.8 627.7 364.6 627.7 362.4 627.7 360 627.7 357.8 627.8 355.7 627.9 353.6 629.9 352.2 632 350.9 634.3 349.6 636.2 348.5 638.1 347.5 640 346.6 641.9 347.5 643.8 348.5 645.7 349.6 647.7 350.8 649.7 352 651.5 353.2 651.7 355.4 651.7 357.6 651.7 360 651.7 362.5 651.6 364.9 651.4 367.2 649.8 368.3 648.1 369.3 646.3 370.4ZM650.9 372.3C650.6 374.2 650.3 376.1 650 377.8 648.3 377.2 646.5 376.6 644.7 375.8 645.9 375.2 647.1 374.5 648.3 373.8 649.2 373.3 650.1 372.8 650.9 372.3ZM635.3 375.8C633.3 376.6 631.4 377.3 629.5 377.9 629.1 376 628.8 374 628.5 371.9 629.6 372.6 630.6 373.2 631.8 373.9 632.9 374.5 634.1 375.2 635.3 375.8ZM623.8 363.8C622.2 362.6 620.8 361.4 619.5 360.2 620.8 359 622.3 357.8 623.8 356.6 623.8 357.7 623.7 358.8 623.7 360 623.7 361.3 623.7 362.6 623.8 363.8ZM628.4 348.5C628.7 346.3 629 344.2 629.4 342.2 631.3 342.8 633.3 343.6 635.3 344.4 634.3 344.9 633.2 345.5 632.2 346.1 631 346.9 629.7 347.7 628.4 348.5ZM644.6 344.4C646.4 343.6 648.2 343 650 342.4 650.4 344.2 650.7 346.1 651 348.1 649.9 347.4 648.9 346.8 647.7 346.1 646.7 345.6 645.7 345 644.6 344.4ZM655.6 356.2C657.4 357.6 659 358.9 660.5 360.3 659 361.6 657.4 363 655.6 364.3 655.7 362.9 655.7 361.5 655.7 360.1 655.7 358.7 655.7 357.4 655.6 356.2ZM639.7 324C642.7 324 646.6 329.3 649.1 338.5 646.2 339.5 643.1 340.7 640 342.1 636.7 340.6 633.5 339.3 630.4 338.3 632.9 329.2 636.7 324 639.7 324ZM608.5 342C609.4 340.5 612 339.7 615.7 339.7 618.6 339.7 621.9 340.2 625.5 341.1 624.8 344.3 624.3 347.8 624 351.4 621.2 353.4 618.7 355.4 616.5 357.5 609.8 350.7 607 344.6 608.5 342ZM616.3 380.3C612.6 380.3 609.9 379.4 609.1 378 607.6 375.4 610.2 369.6 616.6 363 618.9 365 621.4 367 624.1 369 624.4 372.5 624.9 375.9 625.6 379 622.3 379.9 619.1 380.3 616.3 380.3ZM639.7 396C636.7 396 632.9 390.8 630.4 381.8 633.5 380.8 636.7 379.6 640 378.1 643.1 379.5 646.1 380.7 649 381.6 646.5 390.8 642.7 396 639.7 396ZM670.9 378C670 379.5 667.4 380.3 663.7 380.3 660.8 380.3 657.4 379.8 653.9 378.9 654.5 375.9 655 372.8 655.3 369.4 658.3 367.3 661 365.2 663.4 363 669.8 369.6 672.4 375.4 670.9 378Z"/></g></svg>